<svg xmlns="http://www.w3.org/2000/svg" viewBox="0 0 788.96 788.96"><defs><style>.cls-1,.cls-5,.cls-7{fill:#c13345;}.cls-2{fill:#fff;}.cls-3,.cls-4{fill:none;stroke:#c13345;stroke-linecap:round;stroke-linejoin:round;}.cls-3{stroke-width:9px;}.cls-4{stroke-width:8.92px;}.cls-5{font-size:136px;}.cls-5,.cls-7{font-family:Roboto-Bold, Roboto;font-weight:700;}.cls-6{letter-spacing:0.01em;}.cls-7{font-size:30px;}.cls-8{letter-spacing:0.01em;}</style></defs><g id="Layer_6" data-name="Layer 6"><rect class="cls-1" width="788.96" height="788.96"/></g><g id="Hex"><path class="cls-2" d="M376.92,68.38,120.85,216.22a35.12,35.12,0,0,0-17.56,30.42V542.33a35.11,35.11,0,0,0,17.56,30.41L376.92,720.58a35.09,35.09,0,0,0,35.12,0L668.12,572.74a35.12,35.12,0,0,0,17.55-30.41V246.64a35.14,35.14,0,0,0-17.55-30.42L412,68.38A35.14,35.14,0,0,0,376.92,68.38Z" transform="translate(0 0)"/></g><g id="Head"><path class="cls-3" d="M357.38,377.11l.2-22.36-37.27,5.3-7.09-49.12-23.06-2.46,21.52-52.56-.15-2.85A85.24,85.24,0,1,1,448.29,321V375.1" transform="translate(0 0)"/><circle class="cls-3" cx="394.48" cy="250.67" r="12.87"/><circle class="cls-3" cx="394.48" cy="245.67" r="39.68"/><line class="cls-3" x1="394.48" y1="263.55" x2="394.48" y2="285.35"/><polyline class="cls-3" points="412.2 298.99 412.2 288.99 377.37 288.99 377.37 298.99"/><path class="cls-4" d="M412.2,299a17.42,17.42,0,1,1-34.83,0" transform="translate(0 0)"/><line class="cls-3" x1="412.2" y1="288.99" x2="412.2" y2="281.97"/><line class="cls-3" x1="377.37" y1="291.69" x2="377.37" y2="284.68"/></g><g id="PySR"><text class="cls-5" transform="translate(230.79 509.12)"><tspan class="cls-6">P</tspan><tspan x="88.72" y="0">ySR</tspan></text></g><g id="High_Performance" data-name="High Performance"><text class="cls-7" transform="translate(244.84 568.59)">HIGH-PERFOR<tspan class="cls-8" x="194.87" y="0">M</tspan><tspan x="221.41" y="0">ANCE</tspan><tspan x="-17.97" y="36">SYMBOLIC REGRESSION</tspan></text></g></svg>