<svg xmlns="http://www.w3.org/2000/svg" viewBox="0 0 788.96 788.96"><defs><style>.cls-1,.cls-5{fill:#c13345;}.cls-2{fill:#fff;}.cls-3,.cls-4{fill:none;stroke:#c13345;stroke-linecap:round;stroke-linejoin:round;}.cls-3{stroke-width:9.89px;}.cls-4{stroke-width:9.8px;}.cls-5{font-size:149.62px;font-family:Roboto-Bold, Roboto;font-weight:700;}.cls-6{letter-spacing:0.01em;}</style></defs><g id="Layer_6" data-name="Layer 6"><rect class="cls-1" width="788.96" height="788.96"/></g><g id="Hex"><path class="cls-2" d="M376.92,68.38,120.85,216.22a35.12,35.12,0,0,0-17.56,30.42V542.33a35.11,35.11,0,0,0,17.56,30.41L376.92,720.58a35.09,35.09,0,0,0,35.12,0L668.12,572.74a35.12,35.12,0,0,0,17.55-30.41V246.64a35.14,35.14,0,0,0-17.55-30.42L412,68.38A35.14,35.14,0,0,0,376.92,68.38Z" transform="translate(0 0)"/></g><g id="Head"><path class="cls-3" d="M353.73,416.44l.21-24.56L313,397.7l-7.8-54L279.89,341l23.64-57.74-.17-3.13a93.63,93.63,0,1,1,150.23,74.6v59.46" transform="translate(0 0)"/><circle class="cls-3" cx="394.48" cy="277.55" r="14.14"/><circle class="cls-3" cx="394.48" cy="272.06" r="43.59"/><line class="cls-3" x1="394.48" y1="291.69" x2="394.48" y2="315.65"/><polyline class="cls-3" points="413.95 330.62 413.95 319.64 375.68 319.64 375.68 330.62"/><path class="cls-4" d="M414,330.62a19.14,19.14,0,1,1-38.27,0" transform="translate(0 0)"/><line class="cls-3" x1="413.95" y1="319.64" x2="413.95" y2="311.94"/><line class="cls-3" x1="375.68" y1="322.61" x2="375.68" y2="314.9"/></g><g id="PySR"><text class="cls-5" transform="translate(214.4 561.87)"><tspan class="cls-6">P</tspan><tspan x="97.6" y="0">ySR</tspan></text></g></svg>
